<svg width="129" height="30" viewBox="0 0 129 30" fill="none" xmlns="http://www.w3.org/2000/svg">
<path d="M126.865 21.8269C125.736 21.8269 124.871 21.5171 124.269 20.8973C123.667 20.2775 123.366 19.3968 123.366 18.2548V14.2264H121.739V13.0902L123.366 12.7201V10.5424C124.447 10.2243 125.529 11.0342 125.529 12.1607V18.3322C125.529 18.9174 125.667 19.388 125.943 19.7438C126.219 20.0996 126.58 20.2775 127.025 20.2775C127.232 20.2775 127.448 20.2602 127.674 20.2259C127.906 20.1857 128.185 20.1169 128.511 20.0193L129 21.3964C128.53 21.5399 128.132 21.6461 127.806 21.7149C127.486 21.7894 127.172 21.8269 126.865 21.8269ZM127.956 14.2264C127.618 14.2264 127.332 14.1519 127.1 14.0026C126.868 13.8476 126.677 13.6553 126.527 13.4258C126.382 13.1963 126.269 12.961 126.188 12.7201H128.887V14.2264H127.956Z" fill="white"/>
<path d="M117.814 21.827C117.024 21.827 116.328 21.6951 115.726 21.4311C115.124 21.1671 114.622 20.8113 114.221 20.3638C113.819 19.9162 113.518 19.4084 113.318 18.8402C113.117 18.2664 113.017 17.6695 113.017 17.0499C113.017 16.1089 113.224 15.2997 113.637 14.6225C114.051 13.9455 114.619 13.426 115.34 13.0646C116.067 12.6974 116.892 12.5137 117.814 12.5137C118.491 12.5137 119.099 12.6429 119.639 12.9011C120.178 13.1534 120.617 13.5065 120.955 13.9599C121.294 14.4074 121.501 14.9325 121.576 15.535C121.658 16.1376 121.573 16.7832 121.322 17.4718H115.98C116.111 17.1046 116.302 16.7946 116.553 16.5422C116.81 16.2897 117.127 16.1636 117.503 16.1636H119.45C119.501 15.7791 119.457 15.4233 119.319 15.0963C119.187 14.7692 118.977 14.5081 118.689 14.3129C118.4 14.1178 118.058 14.0202 117.663 14.0202C117.249 14.0202 116.861 14.1292 116.497 14.3473C116.133 14.5595 115.838 14.8867 115.613 15.3284C115.393 15.7703 115.284 16.3298 115.284 17.0068C115.284 17.6724 115.399 18.2491 115.631 18.737C115.87 19.2247 116.199 19.6006 116.619 19.8646C117.039 20.1287 117.522 20.2606 118.068 20.2606C118.5 20.2606 118.921 20.2146 119.328 20.1228C119.742 20.0253 120.219 19.8588 120.758 19.6237L121.341 21.0526C120.695 21.3395 120.077 21.5403 119.488 21.6552C118.905 21.7696 118.347 21.827 117.814 21.827Z" fill="white"/>
<path d="M109.593 21.6202V8.57129C110.845 8.57129 111.86 9.58618 111.86 10.8382V21.6202H109.593Z" fill="white"/>
<path d="M105.615 21.6202V8.57129C106.867 8.57129 107.881 9.58618 107.881 10.838V21.6202H105.615Z" fill="white"/>
<path d="M98.9809 21.8271C98.36 21.8271 97.8241 21.7123 97.3724 21.4828C96.9209 21.2475 96.5731 20.9377 96.3284 20.5532C96.0902 20.1629 95.9709 19.7411 95.9709 19.2878C95.9709 18.7714 96.1278 18.3095 96.4414 17.9019C96.7611 17.4887 97.2973 17.1473 98.0498 16.8777C98.8021 16.6081 99.8337 16.4185 101.144 16.3097C101.107 16.5277 101.041 16.7429 100.947 16.9553C100.853 17.1677 100.715 17.3512 100.533 17.5062C100.357 17.6554 100.125 17.753 99.8368 17.799C99.4292 17.8564 99.1094 17.951 98.8775 18.083C98.6455 18.2149 98.4792 18.3699 98.379 18.5477C98.2849 18.7256 98.2379 18.912 98.2379 19.1072C98.2379 19.4286 98.36 19.7012 98.6047 19.9249C98.8556 20.1487 99.1723 20.2607 99.5547 20.2607C99.9435 20.2607 100.332 20.1545 100.721 19.9421C101.116 19.7241 101.483 19.4228 101.822 19.0383V16.1978C101.822 15.5665 101.64 15.0616 101.276 14.6829C100.918 14.2984 100.373 14.1062 99.6394 14.1062C99.3196 14.1062 98.984 14.1378 98.633 14.2009C98.288 14.2583 97.8898 14.3615 97.4384 14.5107C97.1159 13.7302 97.5963 12.8514 98.4272 12.701C98.474 12.6925 98.5204 12.6846 98.567 12.6773C99.1126 12.5855 99.6017 12.5396 100.034 12.5396C101.32 12.5396 102.311 12.861 103.007 13.5037C103.709 14.1405 104.06 15.056 104.06 16.2494V19.1501C104.06 19.6092 104.085 20.0453 104.135 20.4583C104.186 20.8657 104.261 21.2531 104.361 21.6203H102.678C102.508 21.5285 102.37 21.4052 102.264 21.2502C102.157 21.0952 102.066 20.9287 101.991 20.7508L101.953 20.4238L101.727 20.725C101.201 21.1784 100.727 21.4767 100.307 21.6203C99.8934 21.7582 99.4513 21.8271 98.9809 21.8271Z" fill="white"/>
<path d="M81.3187 21.6203L77.5186 9.10498H78.0453C79.0954 9.10498 80.016 9.80633 80.2948 10.8187L82.4565 18.668L82.6069 19.5803L82.814 18.668L85.4381 9.27725H85.8613C87.1225 9.27725 88.2279 10.1203 88.5619 11.3364L90.5742 18.668L90.7623 19.5803L90.9127 18.7023L93.5464 9.10498C94.666 9.10498 95.468 10.1852 95.1443 11.2569L92.0133 21.6203H89.5676L86.8494 12.2037L86.6894 11.4893L86.539 12.1779L83.8205 21.6203H81.3187Z" fill="white"/>
<path d="M68.8283 21.5153L60.6451 9H61.9673C62.7791 9 63.5298 9.43171 63.938 10.1337L65.7713 13.2865L65.9501 13.7771L66.1005 13.2865L68.6025 9H71.1891L67.1351 15.1199L71.4054 21.5153H68.8283ZM60.4287 21.5153L64.1629 15.886C64.3195 16.0753 64.4764 16.325 64.6331 16.6348C64.7899 16.9389 64.8902 17.2631 64.9341 17.6074C64.978 17.9517 64.9058 18.2788 64.7178 18.5886L62.9401 21.5151H60.4287V21.5153Z" fill="white"/>
<path d="M53.7494 21.8613C52.4075 21.8613 51.2411 21.5858 50.2504 21.0349C49.2596 20.484 48.4915 19.7208 47.946 18.7453C47.4004 17.7641 47.1277 16.6335 47.1277 15.354C47.1277 14.3784 47.2939 13.4919 47.6262 12.6942C47.9584 11.8965 48.4226 11.2108 49.0183 10.637C49.6139 10.0632 50.3132 9.62127 51.1159 9.31147C51.9248 9.00168 52.8028 8.84668 53.7496 8.84668C54.8973 8.84668 55.888 9.03039 56.7219 9.39761C57.556 9.76482 58.2426 10.2612 58.7818 10.8867C59.3211 11.5064 59.7193 12.2036 59.9765 12.9782C60.2399 13.7472 60.3716 14.539 60.3716 15.3538C60.3716 16.2547 60.2147 17.0983 59.9012 17.8844C59.5876 18.6706 59.1393 19.362 58.5561 19.9587C57.9729 20.5554 57.277 21.0231 56.4681 21.3616C55.659 21.6949 54.7527 21.8613 53.7494 21.8613ZM53.7494 20.2949C54.5144 20.2949 55.2106 20.0912 55.8377 19.6838C56.4647 19.2764 56.9632 18.7026 57.3332 17.9624C57.7031 17.2165 57.888 16.347 57.888 15.3544C57.888 14.3847 57.7124 13.5296 57.3613 12.7893C57.0163 12.0434 56.5336 11.4638 55.9128 11.0506C55.2919 10.6318 54.5708 10.4223 53.7494 10.4223C52.9091 10.4223 52.1786 10.6374 51.5578 11.0679C50.937 11.4983 50.4574 12.0865 50.1187 12.8324C49.7864 13.5785 49.6202 14.419 49.6202 15.3544C49.6202 16.02 49.7142 16.6512 49.9023 17.2481C50.0904 17.8392 50.3631 18.3641 50.7206 18.8233C51.078 19.2825 51.5108 19.6439 52.0186 19.9079C52.5329 20.1657 53.1099 20.2949 53.7494 20.2949Z" fill="white"/>
<path d="M38.1428 21.6203V12.8271C38.1428 10.7715 39.8093 9.10498 41.8649 9.10498H46.185C46.185 10.3148 45.2042 11.2958 43.9941 11.2958H42.6755C41.4657 11.2958 40.4847 12.2766 40.4847 13.4866V21.6205H38.1428V21.6203ZM41.1998 15.8189C41.2813 15.5836 41.3941 15.3483 41.5383 15.1132C41.6887 14.8722 41.8801 14.6742 42.1121 14.5192C42.3503 14.3642 42.6389 14.2868 42.9774 14.2868H45.5454V15.8189H41.1998Z" fill="white"/>
<rect width="30" height="30" rx="15" fill="#12FE74"/>
<path fill-rule="evenodd" clip-rule="evenodd" d="M19.2417 7.19919C17.9985 6.54106 17.0549 5.38498 16.6823 3.99561C16.5674 4.42043 16.5082 4.86614 16.5082 5.32579C16.5082 5.68445 16.5465 6.03266 16.6161 6.37043C16.6161 6.37043 16.6161 6.37043 16.6161 6.37392C16.6161 6.3774 16.6196 6.38436 16.6196 6.38784C16.7136 6.84052 16.8668 7.26883 17.0723 7.66579C16.6335 7.34195 16.2435 6.95544 15.9162 6.52017C15.4775 9.92223 16.7136 13.4636 18.9735 15.7966C21.9229 19.23 19.2034 25.0557 14.6069 24.9025C8.10226 24.9582 6.98797 15.3788 13.228 13.8745L13.2245 13.8571C14.889 13.3173 15.669 12.2344 15.8048 10.8276C13.4021 12.7741 9.60655 10.361 10.3935 7.33847C1.37474 11.7782 4.72458 26.1804 14.9482 26.0028C19.4019 26.0028 23.1695 23.0569 24.4057 19.0072C25.8821 14.2854 23.4934 9.25366 19.2417 7.19919Z" fill="black"/>
</svg>
