<svg width="160" height="60" viewBox="0 0 160 60" fill="none" xmlns="http://www.w3.org/2000/svg">
<path d="M160 27.5434C160 28.6367 159.734 29.6349 159.201 30.5381C158.684 31.4254 157.98 32.1384 157.087 32.6771C156.194 33.2159 155.208 33.4852 154.127 33.4852H149.463C149.463 32.1857 150.504 31.1323 151.788 31.1323H154.127C154.785 31.1323 155.38 30.9738 155.912 30.6569C156.445 30.3242 156.868 29.8884 157.181 29.3497C157.494 28.7951 157.651 28.193 157.651 27.5434C157.651 26.8779 157.494 26.2758 157.181 25.7371C156.868 25.1984 156.445 24.7705 155.912 24.4536C155.38 24.1367 154.785 23.9783 154.127 23.9783H148.147V38.2387H145.798V23.3786C145.798 22.3972 146.584 21.6016 147.554 21.6016H154.127C155.208 21.6016 156.194 21.8709 157.087 22.4097C157.98 22.9325 158.684 23.6456 159.201 24.5487C159.734 25.4519 160 26.4501 160 27.5434Z" fill="white"/>
<path d="M143.448 38.2387H141.099V33.4852H132.746C132.746 32.1726 133.798 31.1085 135.095 31.1085H141.099V23.9783H137.444C136.379 23.9783 135.401 24.2477 134.508 24.7864C133.615 25.3093 132.903 26.0223 132.37 26.9254C131.854 27.8286 131.595 28.8268 131.595 29.9201V38.2387H129.246V29.9201C129.246 28.7793 129.457 27.7098 129.88 26.7115C130.303 25.6975 130.89 24.8102 131.642 24.0496C132.394 23.2732 133.263 22.6711 134.25 22.2433C135.252 21.8155 136.317 21.6016 137.444 21.6016H141.691C142.661 21.6016 143.448 22.3972 143.448 23.3786V38.2387Z" fill="white"/>
<path d="M127.151 32.2493C127.151 33.3426 126.884 34.3488 126.352 35.2678C125.82 36.1709 125.107 36.8919 124.214 37.4306C123.322 37.9693 122.327 38.2387 121.231 38.2387C120.26 38.2387 119.36 38.0248 118.53 37.597C117.7 37.1692 117.011 36.5908 116.462 35.862C115.93 36.5908 115.249 37.1692 114.419 37.597C113.589 38.0248 112.688 38.2387 111.717 38.2387C110.637 38.2387 109.642 37.9693 108.734 37.4306C107.841 36.8919 107.129 36.1709 106.596 35.2678C106.064 34.3488 105.798 33.3426 105.798 32.2493V23.9783C105.798 22.6657 106.849 21.6016 108.147 21.6016V32.2493C108.147 32.9148 108.303 33.5248 108.617 34.0794C108.945 34.6181 109.376 35.0539 109.909 35.3866C110.457 35.7035 111.06 35.862 111.717 35.862C112.359 35.862 112.947 35.7114 113.479 35.4104C114.012 35.0935 114.434 34.6736 114.748 34.1507C115.076 33.6278 115.257 33.0495 115.288 32.4157V22.8018C115.288 22.1389 115.819 21.6016 116.474 21.6016C117.129 21.6016 117.66 22.1389 117.66 22.8018V32.2493C117.66 32.9148 117.817 33.5248 118.13 34.0794C118.459 34.6181 118.89 35.0539 119.422 35.3866C119.97 35.7035 120.573 35.862 121.231 35.862C121.889 35.862 122.484 35.7035 123.016 35.3866C123.564 35.0539 123.995 34.6181 124.308 34.0794C124.637 33.5248 124.802 32.9148 124.802 32.2493V21.6016C126.099 21.6016 127.151 22.6657 127.151 23.9783V32.2493Z" fill="white"/>
<path d="M103.93 33.4852C103.93 34.3567 103.719 35.1569 103.296 35.8857C102.873 36.5987 102.309 37.1692 101.604 37.597C100.9 38.0248 100.109 38.2387 99.2318 38.2387H89.7282C89.7282 36.9261 90.78 35.862 92.0773 35.862H99.2318C99.8896 35.862 100.445 35.6322 100.9 35.1727C101.354 34.6974 101.581 34.1349 101.581 33.4852C101.581 32.8356 101.354 32.281 100.9 31.8215C100.445 31.3462 99.8896 31.1085 99.2318 31.1085H94.4264C93.5651 31.1085 92.7742 30.8946 92.0538 30.4668C91.3491 30.039 90.7853 29.4686 90.3625 28.7555C89.9397 28.0267 89.7282 27.2265 89.7282 26.355C89.7282 25.4836 89.9397 24.6913 90.3625 23.9783C90.7853 23.2494 91.3491 22.6711 92.0538 22.2433C92.7742 21.8155 93.5651 21.6016 94.4264 21.6016H102.755C102.755 22.9142 101.704 23.9783 100.406 23.9783H94.4264C93.7843 23.9783 93.2284 24.216 92.7585 24.6913C92.3044 25.1508 92.0773 25.7054 92.0773 26.355C92.0773 27.0047 92.3044 27.5672 92.7585 28.0425C93.2284 28.502 93.7843 28.7318 94.4264 28.7318H99.2318C100.109 28.7318 100.9 28.9457 101.604 29.3735C102.309 29.8013 102.873 30.3796 103.296 31.1085C103.719 31.8215 103.93 32.6138 103.93 33.4852Z" fill="#FF7C01"/>
<path d="M89.0492 33.4852C89.0492 34.3567 88.8377 35.1569 88.4149 35.8857C87.9921 36.5987 87.4283 37.1692 86.7236 37.597C86.0189 38.0248 85.228 38.2387 84.351 38.2387H74.8475C74.8475 36.9261 75.8992 35.862 77.1965 35.862H84.351C85.0088 35.862 85.5647 35.6322 86.0189 35.1727C86.473 34.6974 86.7001 34.1349 86.7001 33.4852C86.7001 32.8356 86.473 32.281 86.0189 31.8215C85.5647 31.3462 85.0088 31.1085 84.351 31.1085H79.5456C78.6843 31.1085 77.8934 30.8946 77.173 30.4668C76.4683 30.039 75.9045 29.4686 75.4817 28.7555C75.0589 28.0267 74.8475 27.2265 74.8475 26.355C74.8475 25.4836 75.0589 24.6913 75.4817 23.9783C75.9045 23.2494 76.4683 22.6711 77.173 22.2433C77.8934 21.8155 78.6843 21.6016 79.5456 21.6016H87.8746C87.8746 22.9142 86.8229 23.9783 85.5256 23.9783H79.5456C78.9035 23.9783 78.3476 24.216 77.8778 24.6913C77.4236 25.1508 77.1965 25.7054 77.1965 26.355C77.1965 27.0047 77.4236 27.5672 77.8778 28.0425C78.3476 28.502 78.9035 28.7318 79.5456 28.7318H84.351C85.228 28.7318 86.0189 28.9457 86.7236 29.3735C87.4283 29.8013 87.9921 30.3796 88.4149 31.1085C88.8377 31.8215 89.0492 32.6138 89.0492 33.4852Z" fill="white"/>
<path d="M74.4423 33.4852C74.4423 34.3567 74.2309 35.1569 73.8081 35.8857C73.3853 36.5987 72.8137 37.1692 72.0933 37.597C71.3886 38.0248 70.6055 38.2387 69.7442 38.2387H63.2114C63.2114 36.9261 64.2631 35.862 65.5605 35.862H69.7442C70.3863 35.862 70.9344 35.6322 71.3886 35.1727C71.8584 34.6974 72.0933 34.1349 72.0933 33.4852C72.0933 32.8356 71.8584 32.281 71.3886 31.8215C70.9344 31.3462 70.3863 31.1085 69.7442 31.1085H63.2114C63.2114 29.7959 64.2631 28.7318 65.5605 28.7318H67.3951C68.0372 28.7318 68.5853 28.502 69.0395 28.0425C69.5093 27.5672 69.7442 27.0047 69.7442 26.355C69.7442 25.7054 69.5093 25.1508 69.0395 24.6913C68.5853 24.216 68.0372 23.9783 67.3951 23.9783H62.0369V35.862C62.0369 37.1746 60.9852 38.2387 59.6878 38.2387V21.6016H67.3951C68.2565 21.6016 69.0395 21.8155 69.7442 22.2433C70.4646 22.6711 71.0362 23.2494 71.459 23.9783C71.8819 24.6913 72.0933 25.4836 72.0933 26.355C72.0933 26.8462 72.0228 27.3216 71.8819 27.7811C71.7409 28.2247 71.5452 28.6367 71.2946 29.017C72.2186 29.3339 72.9703 29.9043 73.5497 30.7282C74.1448 31.5363 74.4423 32.4553 74.4423 33.4852Z" fill="white"/>
<path d="M57.923 29.9201C57.923 31.0768 57.7429 32.1622 57.3827 33.1763C57.0225 34.1745 56.5057 35.0539 55.8323 35.8144C55.1746 36.575 54.3837 37.1692 53.4598 37.597C52.5358 38.0248 51.51 38.2387 50.3825 38.2387H48.272C47.1288 38.2387 46.0952 38.0248 45.1712 37.597C44.2473 37.1692 43.4486 36.575 42.7752 35.8144C42.1174 35.0539 41.6085 34.1745 41.2483 33.1763C40.8881 32.1622 40.708 31.0768 40.708 29.9201C40.708 28.7793 40.8881 27.7098 41.2483 26.7115C41.6085 25.6975 42.1174 24.8102 42.7752 24.0496C43.4486 23.2732 44.2473 22.6711 45.1712 22.2433C46.0952 21.8155 47.1288 21.6016 48.272 21.6016H50.3825C51.51 21.6016 52.5358 21.8155 53.4598 22.2433C54.3837 22.6711 55.1746 23.2732 55.8323 24.0496C56.5057 24.8102 57.0225 25.6975 57.3827 26.7115C57.7429 27.7098 57.923 28.7793 57.923 29.9201ZM55.5739 29.9201C55.5739 28.8268 55.3625 27.8286 54.9397 26.9254C54.5325 26.0223 53.9374 25.3093 53.1544 24.7864C52.387 24.2477 51.4631 23.9783 50.3825 23.9783H48.272C47.1914 23.9783 46.2596 24.2477 45.4766 24.7864C44.7092 25.3093 44.1142 26.0223 43.6913 26.9254C43.2685 27.8286 43.0571 28.8268 43.0571 29.9201C43.0571 31.0134 43.2685 32.0117 43.6913 32.9148C44.1142 33.8021 44.7092 34.5151 45.4766 35.0539C46.2596 35.5926 47.1914 35.862 48.272 35.862H50.3825C51.4631 35.862 52.387 35.5926 53.1544 35.0539C53.9374 34.5151 54.5325 33.8021 54.9397 32.9148C55.3625 32.0117 55.5739 31.0134 55.5739 29.9201Z" fill="white"/>
<path d="M22.5578 42.8508C29.684 42.8508 35.4814 37.0538 35.4814 29.9281C35.4814 22.8024 29.684 17 22.5578 17C22.5568 17 22.5561 17 22.5551 17L12.9237 17C5.79747 17 3.5613e-06 22.797 3.24983e-06 29.9227C2.93836e-06 37.0483 5.79747 42.8508 12.9237 42.8508C12.9247 42.8508 12.9254 42.8508 12.9264 42.8508L22.5578 42.8508ZM16.2238 29.9281C16.2238 26.4358 19.0652 23.5946 22.5578 23.5946C26.0503 23.5946 28.8867 26.4358 28.8867 29.9281C28.8867 32.7999 26.9629 35.2294 24.3367 35.9998C25.3329 34.1466 25.8528 32.0805 25.8528 29.9227C25.8528 28.1044 24.3734 26.6255 22.5551 26.6255C20.7367 26.6255 19.2577 28.1048 19.2577 29.9227C19.2577 33.4149 16.4162 36.2562 12.9237 36.2562C9.43112 36.2562 6.59512 33.4149 6.59512 29.9227C6.59512 27.0508 8.51888 24.6213 11.1448 23.8509C10.1485 25.7042 9.62867 27.7702 9.62867 29.9281C9.62867 31.7463 11.108 33.2252 12.9264 33.2252C14.7448 33.2252 16.2241 31.746 16.2241 29.9281L16.2238 29.9281ZM1.87345 29.9227C1.87345 23.8302 6.83041 18.8736 12.9233 18.8736L15.8416 18.8736C15.7706 18.9171 15.7012 18.9634 15.6312 19.0083C15.6094 19.0222 15.5876 19.0361 15.5659 19.0501C15.1701 19.3057 14.7869 19.5835 14.419 19.8834C14.4109 19.8902 14.4027 19.897 14.3945 19.9038C14.2218 20.0452 14.0528 20.1917 13.8873 20.3427C13.8682 20.36 13.8492 20.377 13.8305 20.3944C13.4833 20.7139 13.1518 21.0539 12.8373 21.4143C12.8183 21.4361 12.7999 21.4582 12.7812 21.4799C12.7102 21.5625 12.6381 21.6438 12.569 21.7281C8.20982 21.9141 4.72101 25.5186 4.72101 29.9223C4.72101 34.3261 8.40056 38.1295 12.9233 38.1295C17.4461 38.1295 21.1311 34.4478 21.1311 29.9223C21.1311 29.1373 21.7696 28.4988 22.5547 28.4988C23.3398 28.4988 23.9787 29.1373 23.9787 29.9223C23.9787 32.4011 23.1783 34.7378 21.6619 36.6822C19.5491 39.4115 16.3639 40.9768 12.9233 40.9768C6.83041 40.9768 1.87345 36.0178 1.87345 29.9223L1.87345 29.9227ZM19.9112 40.8034C20.31 40.546 20.6959 40.2662 21.0662 39.964C21.0699 39.9609 21.0736 39.9579 21.0774 39.9548C21.2552 39.8093 21.4293 39.6583 21.5996 39.503C21.6153 39.4887 21.6309 39.4748 21.6466 39.4605C21.9957 39.1389 22.3296 38.7968 22.6458 38.4344C22.6628 38.4147 22.6795 38.3946 22.6965 38.3749C22.7689 38.2913 22.842 38.2083 22.9124 38.1223C27.2716 37.9363 30.7604 34.3319 30.7604 29.9281C30.7604 25.5243 27.0809 21.721 22.5578 21.721C18.0347 21.721 14.35 25.4026 14.35 29.9281C14.35 30.7131 13.7115 31.3516 12.9261 31.3516C12.1406 31.3516 11.5021 30.7131 11.5021 29.9281C11.5021 27.4493 12.3025 25.1126 13.8189 23.1683C15.9317 20.4389 19.1169 18.8736 22.5574 18.8736C28.6507 18.8736 33.6077 23.8326 33.6077 29.9281C33.6077 36.0236 28.6507 40.9771 22.5578 40.9771L19.6398 40.9771C19.7123 40.9329 19.783 40.8853 19.8547 40.8398C19.8738 40.8275 19.8925 40.8156 19.9115 40.8034L19.9112 40.8034Z" fill="#FF7C01"/>
</svg>
