<svg width="220" height="34" fill="none" xmlns="http://www.w3.org/2000/svg"><g clip-path="url(#a)"><path d="m18.914 11.475-5.441 5.44 5.44 5.442 5.442-5.441-5.441-5.441zM7.981 8.936l3.256 3.256-4.725 4.725 4.725 4.725-3.256 3.256-5.634-5.634V14.57L7.98 8.936zM21.265.348 26.9 5.983l-3.255 3.254-4.725-4.725-4.726 4.727-3.257-3.257L16.573.346l4.692.002zM29.848 8.934l5.635 5.634.001 4.692-5.636 5.636-3.256-3.256 4.727-4.727-4.725-4.725 3.254-3.254zM23.64 24.595l3.256 3.256-5.634 5.634h-4.694l-5.634-5.634 3.256-3.257 4.725 4.725 4.725-4.724z" fill="#8B2EF9"/><path d="M41.49 25.406v-2.343h1.549V10.894h-1.55V8.527h5.868v2.367h-1.55v12.17h1.55v2.342H41.49zM63.815 25.406v-2.343h1.548V10.894h-1.55V8.527h5.868v2.367h-1.55v12.17h1.55v2.342h-5.866zM49.52 25.37V9.996l1.566-1.566h1.077l6.757 11.652V8.43h2.643V23.9l-1.468 1.47H58.92l-6.757-12.044V25.37H49.52zM90.852 25.524V8.645h2.767V23.182h3.744v2.342h-6.511zM100.502 25.524l-.928-2.778v-6.16l.928-2.808h1.84v8.968h5.508v2.779h-7.348z" fill="#fff"/><path d="m107.851 25.524 1.141-2.778v-6.16l-1.141-2.808h-1.626v8.968h-5.509v2.779h7.135z" fill="#fff"/><path d="m100.502 13.778-.928 2.778v6.16l.928 2.808h1.84v-8.967h5.508v-2.78h-7.348z" fill="#fff"/><path d="m107.993 13.778.999 2.778v6.16l-.999 2.808h-1.768v-8.967h-5.509v-2.78h7.277zM122.977 25.524v-8.938l.998-2.808h1.769v8.968h5.509v2.779h-8.276z" fill="#fff"/><path d="m131.396 25.524.999-2.778-.001-6.16.001-2.808h-2.768v8.968h-5.509v2.779h7.278z" fill="#fff"/><path d="m123.975 13.778-.998 2.778v8.968h2.767v-8.967h5.509v-2.78h-7.278z" fill="#fff"/><path d="M132.395 13.778v2.778l-.001 6.16-.998 2.808h-1.769v-8.967h-5.509v-2.78h8.277z" fill="#fff"/><path d="M132.395 8.573v1.352l-.001 12.792-.998 2.807h-1.769V8.573h2.768zM112.272 25.524l-.999-2.778v-8.968h2.768v8.968h5.509v2.779h-7.278z" fill="#fff"/><path d="m119.693 25.524.998-2.778v-8.968h-2.767v8.968h-5.509v2.779h7.278z" fill="#fff"/><path d="M111.273 13.778v8.938l.999 2.808h1.769V13.777h-2.768zM120.691 13.778v8.938l-.998 2.808h-1.769V13.777h2.767zM88.7 25.487v-2.742h-5.58l-1.96-3.525v-4.602l1.96-3.133h5.58v-2.84h-7.148l-3.525 5.973v4.602l3.525 6.267H88.7zM204.598 25.525V13.78h2.767v8.968h5.509v2.779h-8.276z" fill="#fff"/><path d="M214.016 25.525V13.78h-2.768v8.968h-5.508v2.779h8.276z" fill="#fff"/><path d="M204.598 13.778v11.747h2.767v-8.968h5.509v-2.779h-8.276z" fill="#fff"/><path d="M214.016 13.778V28.157l-2.768 2.925V16.557h-5.508v-2.779h8.276z" fill="#fff"/><path d="m213.017 31.543.999-2.779V13.778h-2.768V28.907h-6.65v2.636h8.419zM158.043 25.38V23.17h1.654v-6.707l-.879-.336h-.88V13.95h2.767l1.629 1.507v7.73h1.68v2.209l-5.971-.018zm2.843-17.31 1.99 1.84-2.017 1.865-1.989-1.84 2.016-1.864zM181.301 25.38V23.17h1.653v-6.707l-.878-.336h-.881V13.95h2.768l1.629 1.507v7.73h1.68v2.209l-5.971-.018zm2.843-17.31 1.99 1.84-2.017 1.865-1.989-1.84 2.016-1.864z" fill="#fff"/><path d="m143.315 8.74.052.104 4.794 9.673 4.794-9.673.052-.103h2.688v16.637h-2.106V12.51h-.005l-4.645 9.398-.05.103h-1.558l-.051-.103-4.547-9.2v12.671h-2.108l.002-.186.143-16.268.001-.183h2.544z" fill="#fff" stroke="#fff" stroke-width=".371"/><path d="M171.833 25.387h-5.947v-2.173h1.656v-6.742l-.879-.336h-.878V13.96h2.768l1.545 1.386 1.499-1.386h3.231l2.768 2.534v6.359l.878.36h.881v2.174h-3.05l-1.344-1.506v-6.36l-1.293-1.17h-1.99l-1.499 1.362v5.5h1.654v2.174zM195.091 25.387h-5.947v-2.173h1.656v-6.742l-.879-.336h-.878V13.96h2.767l1.546 1.386 1.499-1.386h3.231l2.767 2.534v6.359l.879.36h.881v2.174h-3.05l-1.344-1.506v-6.36l-1.293-1.17h-1.99l-1.499 1.362v5.5h1.654v2.174z" fill="#fff"/></g><defs><clipPath id="a"><path fill="#fff" d="M0 0h220v34H0z"/></clipPath></defs></svg>