<svg width="140" height="60" viewBox="0 0 140 60" fill="none" xmlns="http://www.w3.org/2000/svg">
<path d="M133.79 42.1831H131.545H128.778L131.147 41.8605L129.344 25.525V25.2024H129.743H132.428H133.79L132.806 25.4401L135.176 34.5927V25.525V25.2024H135.575H137.82H139.836L138.197 25.525L140 41.8605V42.1831H139.623H136.916H136.622L136.539 41.9454L133.348 36.8349L134.168 41.8605V42.1831H133.79Z" fill="black"/>
<path d="M126.368 25.2024H128.615L126.767 25.559L124.817 41.8945L124.775 42.1831H124.439H122.446H122.111L122.069 41.9115L119.907 33.3022L119.572 41.9284L119.509 42.1831H119.174H117.076H116.719L116.677 41.8945L112.963 25.559L110.258 25.2024L113.361 25.2024H115.438H115.795L115.837 25.4911L117.012 32.6311L118.753 25.4741L118.795 25.2024H119.13H120.851H120.935L120.977 25.4741L122.718 32.716L123.998 25.4741L124.04 25.2024H124.396H126.368Z" fill="black"/>
<path d="M107.553 28.0042C107.553 27.8457 107.511 27.7381 107.427 27.6815C107.357 27.6249 107.224 27.5966 107.029 27.5966H106.127C105.931 27.5966 105.798 27.6249 105.728 27.6815C105.658 27.7381 105.623 27.8457 105.623 28.0042L105.131 39.3813C105.131 39.5398 105.166 39.6473 105.236 39.7039C105.306 39.7605 105.439 39.7888 105.635 39.7888H106.537C106.733 39.7888 106.866 39.7605 106.936 39.7039C107.019 39.6473 107.061 39.5398 107.061 39.3813L107.553 28.0042ZM110.103 38.6511C110.103 39.3982 109.992 40.0039 109.768 40.468C109.558 40.9435 109.278 41.3114 108.929 41.5718C108.593 41.8435 108.208 42.0246 107.775 42.1152C107.355 42.2171 106.943 42.268 106.537 42.268H105.635C105.229 42.268 104.817 42.2171 104.397 42.1152C103.977 42.0246 103.593 41.8435 103.243 41.5718C102.894 41.3114 102.607 40.9435 102.383 40.468C102.173 40.0039 102.068 39.3982 102.068 38.6511L102.56 28.7343C102.56 27.9872 102.665 27.3815 102.875 26.9174C103.099 26.4419 103.385 26.074 103.735 25.8136C104.085 25.542 104.469 25.3608 104.889 25.2703C105.308 25.1684 105.721 25.1174 106.127 25.1174H107.029C107.434 25.1174 107.847 25.1684 108.266 25.2703C108.7 25.3608 109.085 25.542 109.42 25.8136C109.77 26.074 110.05 26.4419 110.259 26.9174C110.483 27.3815 110.595 27.9872 110.595 28.7343L110.103 38.6511Z" fill="black"/>
<path d="M98.7404 42.1831H92.006H91.6074V41.8605L92.9186 25.525V25.2024H93.3172H95.562H99.2177L95.9396 25.525L94.6284 39.7379H98.7404L99.118 37.8198V40.0436V41.8605V42.1831H98.7404Z" fill="black"/>
<path d="M83.0928 42.268C82.6872 42.268 82.2747 42.2171 81.8551 42.1152C81.4355 42.0246 81.0509 41.8435 80.7012 41.5718C80.3516 41.3114 80.0648 40.9435 79.8411 40.468C79.6313 40.0039 79.5264 39.3982 79.5264 38.6511L81.1654 28.7343C81.1654 27.9872 81.2703 27.3815 81.4801 26.9174C81.7038 26.4419 81.9906 26.074 82.3402 25.8136C82.6899 25.542 83.0745 25.3608 83.4941 25.2703C83.9137 25.1684 84.3263 25.1174 84.7319 25.1174H85.634C86.0396 25.1174 86.4522 25.1684 86.8717 25.2703C87.3053 25.3608 87.6899 25.542 88.0256 25.8136C88.3753 26.074 88.655 26.4419 88.8648 26.9174C89.0885 27.3815 89.2004 27.9872 89.2004 28.7343L88.7087 31.4852L90.3477 31.7909H88.3311H86.0653H85.6667V31.4852L86.1584 28.0042C86.1584 27.8457 86.1165 27.7381 86.0326 27.6815C85.9626 27.6249 85.8298 27.5966 85.634 27.5966H84.7319C84.536 27.5966 84.4032 27.6249 84.3332 27.6815C84.2633 27.7381 84.2283 27.8457 84.2283 28.0042L82.5893 39.3813C82.5893 39.5398 82.6243 39.6473 82.6942 39.7039C82.7642 39.7718 82.897 39.8058 83.0928 39.8058H83.995C84.1908 39.8058 84.3236 39.7718 84.3936 39.7039C84.4775 39.6473 84.5194 39.5398 84.5194 39.3813L84.8472 37.1738V36.8681H85.2458H87.5116H89.8521L87.8892 37.1738L87.5614 38.6511C87.5614 39.3982 87.4495 40.0039 87.2258 40.468C87.016 40.9435 86.7362 41.3114 86.3866 41.5718C86.0509 41.8435 85.6663 42.0246 85.2327 42.1152C84.8131 42.2171 84.4006 42.268 83.995 42.268H83.0928Z" fill="black"/>
<path d="M30.9912 35.1515C28.4999 33.578 28.2595 36.6043 28.4508 39.9369C27.3854 34.938 23.9435 27.8579 17.6333 30.4803C13.6177 32.9388 13.5904 39.3582 13.6177 43.1826C8.70072 32.234 14.246 24.6345 17.6333 22.2033C23.0092 18.073 30.9912 23.7604 37.7111 26.5467C53.0358 18.3516 52.79 20.2365 57.2153 22.2033C66.8527 30.2017 62.9245 41.4343 59.7558 46.0508C61.1489 41.5982 62.4765 32.2504 56.6417 30.4803C50.8068 28.7102 47.272 34.9653 46.234 39.9369C47.0207 31.8075 45.1413 34.4412 44.1033 35.1515L37.7111 38.9212C36.5092 38.3202 33.4825 36.7249 30.9912 35.1515Z" fill="#040404" stroke="black"/>
<circle cx="13.3102" cy="42.6242" r="2.29461" fill="black"/>
<circle cx="60.8415" cy="44.9189" r="2.29461" fill="black"/>
<circle cx="51.0075" cy="17.5473" r="2.29461" fill="black"/>
<path d="M42.1809 11C35.0269 11 28.9383 17.2929 29.4544 25.4966L41.4434 28.6194C40.7605 26.598 37.5017 18.4161 41.8287 16.6459C46.1557 14.8758 50.4033 17.0372 51.7691 18.9494C51.0862 16.1084 49.3349 11 42.1809 11Z" fill="black"/>
<path d="M32.5689 39.0271C32.5689 39.6923 32.5216 40.8283 32.4142 42.2316C32.9643 42.4817 33.5538 42.9354 34.126 43.6983C33.6802 43.8511 32.9801 43.9683 32.2735 43.8505C32.1974 44.6341 32.1051 45.4659 31.9953 46.3207C31.666 45.6744 31.3008 44.6219 31.1957 43.4448C30.7939 43.1849 30.4396 42.7936 30.1924 42.2232C30.4219 42.0893 30.7801 41.9728 31.2161 41.968C31.3453 40.9405 31.739 39.9058 32.5689 39.0271Z" fill="black"/>
<path d="M42.5668 39.0271C42.5668 39.6923 42.6142 40.8283 42.7215 42.2316C42.1714 42.4817 41.5819 42.9354 41.0097 43.6983C41.4556 43.8511 42.1556 43.9683 42.8623 43.8505C42.9384 44.6341 43.0306 45.4659 43.1405 46.3207C43.4697 45.6744 43.8349 44.6219 43.94 43.4448C44.3418 43.1849 44.6961 42.7936 44.9434 42.2232C44.7138 42.0893 44.3557 41.9728 43.9196 41.968C43.7904 40.9405 43.3967 39.9058 42.5668 39.0271Z" fill="black"/>
<circle cx="37.5672" cy="47.222" r="2.13071" fill="black"/>
</svg>
